<mxfile host="65bd71144e">
    <diagram id="TIbNkqo1CbPCWAM8U0C-" name="페이지-1">
        <mxGraphModel dx="978" dy="713" grid="1" gridSize="10" guides="1" tooltips="1" connect="1" arrows="1" fold="1" page="1" pageScale="1" pageWidth="827" pageHeight="1169" math="0" shadow="0">
            <root>
                <mxCell id="0"/>
                <mxCell id="1" parent="0"/>
                <mxCell id="4" value="" style="edgeStyle=none;html=1;entryX=0;entryY=0.25;entryDx=0;entryDy=0;exitX=1;exitY=0.25;exitDx=0;exitDy=0;" edge="1" parent="1" source="2" target="3">
                    <mxGeometry relative="1" as="geometry">
                        <mxPoint x="170" y="60" as="sourcePoint"/>
                        <Array as="points"/>
                    </mxGeometry>
                </mxCell>
                <mxCell id="7" value="포인트상품 목록&lt;br&gt;(혹은 검색결과)&lt;br&gt;List&amp;lt;PointDto&amp;gt;" style="edgeLabel;html=1;align=center;verticalAlign=middle;resizable=0;points=[];" vertex="1" connectable="0" parent="4">
                    <mxGeometry x="-0.2806" y="-4" relative="1" as="geometry">
                        <mxPoint x="13" y="-28" as="offset"/>
                    </mxGeometry>
                </mxCell>
                <mxCell id="2" value="&amp;lt;컨트롤러&amp;gt;&lt;br&gt;/&lt;br&gt;포인트상품 목록 및&lt;br&gt;검색결과 준비" style="rounded=0;whiteSpace=wrap;html=1;fillColor=#f8cecc;strokeColor=#b85450;" vertex="1" parent="1">
                    <mxGeometry x="40" y="40" width="120" height="60" as="geometry"/>
                </mxCell>
                <mxCell id="11" value="" style="edgeStyle=none;html=1;" edge="1" parent="1" source="3" target="9">
                    <mxGeometry relative="1" as="geometry"/>
                </mxCell>
                <mxCell id="13" value="" style="edgeStyle=none;html=1;entryX=1;entryY=0.75;entryDx=0;entryDy=0;exitX=0;exitY=0.75;exitDx=0;exitDy=0;" edge="1" parent="1" source="3" target="2">
                    <mxGeometry relative="1" as="geometry"/>
                </mxCell>
                <mxCell id="14" value="포인트상품 검색옵션&lt;br&gt;PointSearchVO" style="edgeLabel;html=1;align=center;verticalAlign=middle;resizable=0;points=[];" vertex="1" connectable="0" parent="13">
                    <mxGeometry x="-0.3444" relative="1" as="geometry">
                        <mxPoint x="-17" y="21" as="offset"/>
                    </mxGeometry>
                </mxCell>
                <mxCell id="3" value="&amp;lt;JSP&amp;gt;&lt;br&gt;/select.jsp&lt;br&gt;포인트상품 목록" style="rounded=0;whiteSpace=wrap;html=1;fillColor=#dae8fc;strokeColor=#6c8ebf;" vertex="1" parent="1">
                    <mxGeometry x="270" y="40" width="120" height="60" as="geometry"/>
                </mxCell>
                <mxCell id="16" value="" style="edgeStyle=none;html=1;entryX=0.5;entryY=0;entryDx=0;entryDy=0;rounded=0;exitX=0.5;exitY=1;exitDx=0;exitDy=0;" edge="1" parent="1" source="5" target="15">
                    <mxGeometry relative="1" as="geometry">
                        <Array as="points">
                            <mxPoint x="760" y="120"/>
                            <mxPoint x="845" y="120"/>
                        </Array>
                    </mxGeometry>
                </mxCell>
                <mxCell id="5" value="&amp;lt;JSP&amp;gt;&lt;br&gt;/detail.jsp&lt;br&gt;포인트상품 상세" style="rounded=0;whiteSpace=wrap;html=1;fillColor=#dae8fc;strokeColor=#6c8ebf;" vertex="1" parent="1">
                    <mxGeometry x="700" y="40" width="120" height="60" as="geometry"/>
                </mxCell>
                <mxCell id="12" value="" style="edgeStyle=none;html=1;" edge="1" parent="1" source="9" target="5">
                    <mxGeometry relative="1" as="geometry"/>
                </mxCell>
                <mxCell id="9" value="&amp;lt;컨트롤러&amp;gt;&lt;br&gt;/detail&lt;br&gt;포인트상품 상세 준비" style="rounded=0;whiteSpace=wrap;html=1;fillColor=#f8cecc;strokeColor=#b85450;" vertex="1" parent="1">
                    <mxGeometry x="480" y="40" width="120" height="60" as="geometry"/>
                </mxCell>
                <mxCell id="18" value="" style="edgeStyle=none;html=1;" edge="1" parent="1" source="15" target="17">
                    <mxGeometry relative="1" as="geometry"/>
                </mxCell>
                <mxCell id="15" value="&amp;lt;컨트롤러&amp;gt;&lt;br&gt;/update [GET]&lt;br&gt;포인트상품 수정 준비" style="rounded=0;whiteSpace=wrap;html=1;fillColor=#f8cecc;strokeColor=#b85450;" vertex="1" parent="1">
                    <mxGeometry x="785" y="150" width="120" height="60" as="geometry"/>
                </mxCell>
                <mxCell id="17" value="&amp;lt;JSP&amp;gt;&lt;br&gt;/update.jsp&lt;br&gt;포인트상품 수정 폼" style="rounded=0;whiteSpace=wrap;html=1;fillColor=#dae8fc;strokeColor=#6c8ebf;" vertex="1" parent="1">
                    <mxGeometry x="785" y="260" width="120" height="60" as="geometry"/>
                </mxCell>
                <mxCell id="19" value="" style="endArrow=classic;html=1;exitX=0.5;exitY=1;exitDx=0;exitDy=0;rounded=0;entryX=0.5;entryY=0;entryDx=0;entryDy=0;" edge="1" parent="1" source="17" target="22">
                    <mxGeometry width="50" height="50" relative="1" as="geometry">
                        <mxPoint x="875" y="150" as="sourcePoint"/>
                        <mxPoint x="905" y="170" as="targetPoint"/>
                        <Array as="points"/>
                    </mxGeometry>
                </mxCell>
                <mxCell id="22" value="&amp;lt;컨트롤러&amp;gt;&lt;br&gt;/update [POST]&lt;br&gt;포인트상품 수정 실행" style="rounded=0;whiteSpace=wrap;html=1;fillColor=#f8cecc;strokeColor=#b85450;" vertex="1" parent="1">
                    <mxGeometry x="785" y="370" width="120" height="60" as="geometry"/>
                </mxCell>
                <mxCell id="23" value="" style="endArrow=classic;html=1;rounded=0;entryX=0.5;entryY=1;entryDx=0;entryDy=0;exitX=0;exitY=0.5;exitDx=0;exitDy=0;" edge="1" parent="1" source="22" target="3">
                    <mxGeometry width="50" height="50" relative="1" as="geometry">
                        <mxPoint x="410" y="280" as="sourcePoint"/>
                        <mxPoint x="460" y="230" as="targetPoint"/>
                        <Array as="points">
                            <mxPoint x="330" y="400"/>
                        </Array>
                    </mxGeometry>
                </mxCell>
                <mxCell id="24" value="&amp;lt;컨트롤러&amp;gt;&lt;br&gt;/delete" style="rounded=0;whiteSpace=wrap;html=1;fillColor=#f8cecc;strokeColor=#b85450;" vertex="1" parent="1">
                    <mxGeometry x="610" y="150" width="120" height="60" as="geometry"/>
                </mxCell>
                <mxCell id="27" value="" style="endArrow=classic;html=1;rounded=0;entryX=0.5;entryY=0;entryDx=0;entryDy=0;" edge="1" parent="1" target="24">
                    <mxGeometry width="50" height="50" relative="1" as="geometry">
                        <mxPoint x="760" y="120" as="sourcePoint"/>
                        <mxPoint x="500" y="140" as="targetPoint"/>
                        <Array as="points">
                            <mxPoint x="670" y="120"/>
                        </Array>
                    </mxGeometry>
                </mxCell>
                <mxCell id="33" value="" style="endArrow=none;html=1;rounded=0;entryX=0;entryY=0.5;entryDx=0;entryDy=0;" edge="1" parent="1" target="24">
                    <mxGeometry width="50" height="50" relative="1" as="geometry">
                        <mxPoint x="330" y="180" as="sourcePoint"/>
                        <mxPoint x="520" y="180" as="targetPoint"/>
                    </mxGeometry>
                </mxCell>
                <mxCell id="34" value="pointIdx" style="text;html=1;strokeColor=none;fillColor=none;align=center;verticalAlign=middle;whiteSpace=wrap;rounded=0;" vertex="1" parent="1">
                    <mxGeometry x="406" y="43" width="60" height="30" as="geometry"/>
                </mxCell>
                <mxCell id="37" value="pointDto" style="text;html=1;strokeColor=none;fillColor=none;align=center;verticalAlign=middle;whiteSpace=wrap;rounded=0;" vertex="1" parent="1">
                    <mxGeometry x="619" y="43" width="60" height="30" as="geometry"/>
                </mxCell>
                <mxCell id="39" value="pointIdx" style="text;html=1;strokeColor=none;fillColor=none;align=center;verticalAlign=middle;whiteSpace=wrap;rounded=0;" vertex="1" parent="1">
                    <mxGeometry x="840" y="100" width="60" height="30" as="geometry"/>
                </mxCell>
                <mxCell id="40" value="pointIdx" style="text;html=1;strokeColor=none;fillColor=none;align=center;verticalAlign=middle;whiteSpace=wrap;rounded=0;" vertex="1" parent="1">
                    <mxGeometry x="619" y="100" width="60" height="30" as="geometry"/>
                </mxCell>
                <mxCell id="41" value="pointDto" style="text;html=1;strokeColor=none;fillColor=none;align=center;verticalAlign=middle;whiteSpace=wrap;rounded=0;" vertex="1" parent="1">
                    <mxGeometry x="840" y="220" width="60" height="30" as="geometry"/>
                </mxCell>
                <mxCell id="42" value="pointDto" style="text;html=1;strokeColor=none;fillColor=none;align=center;verticalAlign=middle;whiteSpace=wrap;rounded=0;" vertex="1" parent="1">
                    <mxGeometry x="840" y="330" width="60" height="30" as="geometry"/>
                </mxCell>
            </root>
        </mxGraphModel>
    </diagram>
</mxfile>